<svg xmlns="http://www.w3.org/2000/svg" width="20.027" height="20.404" viewBox="0 0 20.027 20.404"><g fill="#fff" data-name="Gruppe 36"><circle data-name="Ellipse 14" cx="2.298" cy="2.298" r="2.298" transform="rotate(-13.28 5.204 -5.21)"/><circle data-name="Ellipse 15" cx="2.298" cy="2.298" r="2.298" transform="rotate(-13.28 10.595 -51.52)"/><g data-name="Gruppe 35"><path data-name="Pfad 3743" d="M6.13 19.055v-4.944a2.214 2.214 0 0 1-1.263-2V7.653a2.206 2.206 0 0 1 .788-1.69H1.69A1.69 1.69 0 0 0 0 7.653v4.462a1.69 1.69 0 0 0 1.264 1.633v5.307a.873.873 0 0 0 .873.873h3.924a.9.9 0 0 0 .33-.065 1.4 1.4 0 0 1-.261-.808z"/><circle data-name="Ellipse 16" cx="2.298" cy="2.298" r="2.298" transform="rotate(-13.28 7.9 -28.37)"/></g><path data-name="Pfad 3744" d="M9.546 15.39a5.538 5.538 0 0 1 4.048-5.337v-2.4a1.69 1.69 0 0 0-1.69-1.69H7.081a1.69 1.69 0 0 0-1.69 1.69v4.462a1.69 1.69 0 0 0 1.263 1.633v5.307a.873.873 0 0 0 .873.873h3.926a.873.873 0 0 0 .349-.075 5.539 5.539 0 0 1-2.256-4.464z"/><path data-name="Pfad 3745" d="M14.118 7.653v2.28a5.6 5.6 0 0 1 .927-.08 5.473 5.473 0 0 1 3.94 1.676V7.653a1.69 1.69 0 0 0-1.69-1.69H13.33a2.213 2.213 0 0 1 .788 1.69z"/><path data-name="Pfad 3746" d="M15.045 10.377a5.014 5.014 0 1 0 4.982 5.014 5.014 5.014 0 0 0-4.982-5.014zm2.794 5.48h-2.328v2.328a.466.466 0 1 1-.931 0v-2.328h-2.33a.467.467 0 0 1 0-.933h2.33v-2.328a.466.466 0 1 1 .931 0v2.328h2.328a.467.467 0 0 1 0 .933z"/></g></svg>