<svg xmlns="http://www.w3.org/2000/svg" width="112.13" height="112.282" viewBox="0 0 112.13 112.282"><g data-name="Gruppe 33" opacity=".45" style="mix-blend-mode:multiply;isolation:isolate" fill="#3f403a"><path data-name="Pfad 96" d="M112.13 56.068a56.065 56.065 0 0 0-112.13 0c0 .822.02 1.637.056 2.45a56.05 56.05 0 0 0 111.98.587c.052-1.007.094-2.019.094-3.037zm-6.1 2.307a50.014 50.014 0 0 1-99.89.587 49.512 49.512 0 0 1-.085-2.891 50.014 50.014 0 1 1 100.027 0q-.012 1.156-.064 2.3z"/><path data-name="Pfad 97" d="M75.653 52.758l16.008-5.179 14.359 10.79q.053-1.15.053-2.307a49.739 49.739 0 0 0-10.512-30.631l-5.6 16.345-15.847 5.127-15.039-10.92V19.441L73.619 9.229a49.684 49.684 0 0 0-14.544-3.093V3.028H53.03v3.117a49.736 49.736 0 0 0-14.236 2.976l14.236 10.7v16L37.945 46.788l-14.924-4.83-5.9-17.235A49.754 49.754 0 0 0 6.045 56.064c0 .968.03 1.934.085 2.891l14.987-11.263 15.066 4.874 5.734 17.654-9.255 13.024-18.373.293a50.181 50.181 0 0 0 29.287 20.959l-6.054-17.657 9.461-13.282h18.321l9.54 13.417-5.317 17.276a50.2 50.2 0 0 0 28.5-20.991l-18.218.293-9.713-13.657z"/></g></svg>